<svg width="110" height="36" viewBox="0 0 110 36" fill="none" xmlns="http://www.w3.org/2000/svg">
<g clip-path="url(#clip0_1285_7)">
<path d="M1.17504 23.1819C3.39885 30.5983 10.2779 36.006 18.418 36.006C28.3604 36.006 36.4195 27.9469 36.4195 18.006C36.4195 8.06504 28.3604 0.00598145 18.4195 0.00598145C8.88028 0.00598145 1.07461 7.42693 0.45813 16.8101C1.62465 18.7662 2.07767 19.9759 1.17535 23.1819H1.17504Z" fill="white"/>
<path d="M17.4927 13.4975L17.4947 13.5875L13.0902 19.9856C12.377 19.9536 11.6597 20.0786 10.9815 20.3577C10.6814 20.4798 10.4013 20.6298 10.1382 20.8029L0.465014 16.8216C0.465014 16.8216 0.24094 20.5028 1.17525 23.2477L8.01253 26.0686C8.35564 27.6031 9.40799 28.9496 10.9615 29.5958C13.5024 30.6562 16.4313 29.4478 17.4877 26.9049C17.7593 26.2541 17.8906 25.5533 17.8728 24.8482L24.1749 20.3447L24.329 20.3477C28.1002 20.3477 31.1662 17.2727 31.1662 13.4975C31.1652 11.6834 30.4448 9.94379 29.1631 8.66004C27.8814 7.37628 26.143 6.65314 24.329 6.64917C22.5149 6.65314 20.7765 7.37628 19.4948 8.66004C18.2131 9.94379 17.4937 11.6834 17.4927 13.4975ZM16.4363 26.4638C15.6181 28.4274 13.3613 29.3587 11.3997 28.5415C10.4944 28.1643 9.81112 27.4741 9.41699 26.6508L11.6427 27.5731C13.0892 28.1753 14.7488 27.4901 15.35 26.0426C15.6394 25.3477 15.6412 24.5664 15.355 23.8702C15.0687 23.174 14.5179 22.6198 13.8235 22.3294L11.5227 21.3761C12.41 21.039 13.4193 21.026 14.3636 21.4191C14.8316 21.6126 15.2564 21.8971 15.6134 22.2562C15.9705 22.6153 16.2526 23.0417 16.4433 23.5108C16.8335 24.4611 16.8335 25.5135 16.4373 26.4618M24.33 18.059C21.8291 18.059 19.7754 16.0113 19.7754 13.4954C19.7754 10.9796 21.8191 8.93393 24.33 8.93393C26.8408 8.93393 28.8865 10.9816 28.8865 13.4954C28.8865 16.0093 26.8428 18.059 24.33 18.059ZM20.9168 13.4874C20.9168 11.5938 22.4493 10.0583 24.338 10.0583C26.2266 10.0583 27.7591 11.5938 27.7591 13.4874C27.7591 15.3811 26.2266 16.9146 24.338 16.9146C22.4493 16.9146 20.9168 15.3801 20.9168 13.4874Z" fill="#171A21"/>
<path d="M109.593 24.7282H107.149V16.9056L104.298 21.9973H102.667L100.222 16.9056V24.7282H97.3713V11.2837H100.222L103.481 18.5361L107.149 11.2837H109.593V24.7282ZM93.704 24.7282H90.8531L90.0378 22.3654H85.5563L84.7411 24.7282H81.8901L86.7787 11.2837H88.8154L93.704 24.7282ZM89.6297 20.1247L87.9991 15.236L86.3686 20.1247H89.6297ZM77.8158 24.7282H68.8528V11.2837H77.8158V13.6045H71.7037V16.7825H77.0005V19.1063H71.7037V22.4074H77.8158V24.7282ZM64.7754 13.6045H61.5163V24.7282H58.6654V13.6045H54.9982V11.2837H64.7764L64.7754 13.6045ZM51.7381 20.7769C51.7381 23.5478 49.2933 24.8102 46.8494 24.8512C44.4046 24.8512 42.7751 24.281 41.9608 23.0586L43.5914 21.3881C44.4066 22.1213 45.2219 22.5285 46.8504 22.5285C48.479 22.5285 49.2953 21.9583 49.2953 20.8579C49.2953 19.8396 48.48 19.3914 47.6647 19.2274L46.0342 19.0233C43.5894 18.6972 42.3669 17.4348 42.3669 15.234C42.3669 14.0116 42.7741 13.0333 43.5894 12.26C44.4046 11.5268 45.626 11.1597 46.8484 11.1597C48.8851 11.1597 50.1075 11.6898 51.3299 12.7082L49.6994 14.3787C48.8841 13.7685 48.0688 13.4414 46.8484 13.4414C45.626 13.5215 44.8118 13.9716 44.8118 15.152C44.8118 16.0893 45.627 16.5375 46.4423 16.6185L48.0729 16.8626C50.1095 17.1066 51.7401 18.4931 51.7401 20.7639L51.7381 20.7769Z" fill="white"/>
</g>
<defs>
<clipPath id="clip0_1285_7">
<rect width="110" height="36" fill="white"/>
</clipPath>
</defs>
</svg>
